<?xml version="1.0" encoding="UTF-8"?><svg id="Layer_2" xmlns="http://www.w3.org/2000/svg" viewBox="0 0 487.63 488.68"><defs><style>.cls-1{fill:#64b061;}.cls-2{fill:#fefefe;}</style></defs><g id="Layer_1-2"><g><path class="cls-2" d="M244.12,0c40.63-.27,78.87,9.24,114.75,28.18,25.68,13.56,48.03,31.52,67.33,53.05,21.14,23.58,37.27,50.34,47.63,80.33,5.67,16.42,9.76,33.24,11.85,50.58,1.59,13.21,2.29,26.43,1.78,39.67-1.04,27.32-6.64,53.72-16.73,79.19-9.73,24.59-23.07,47.04-40,67.27-17.92,21.41-39.14,39.1-63.22,53.32-25.43,15.01-52.79,24.91-81.79,30.11-18.35,3.29-36.98,4.34-55.56,3.12-31.73-2.09-62.38-9.42-90.73-23.88-9.42-4.8-17.13-3.93-26.32-1.37-24.58,6.84-49.36,12.95-74.05,19.38-11.38,2.96-22.74,6.03-34.13,8.97-5.42,1.4-5.59,1.27-4.18-3.88,6.96-25.54,13.99-51.06,21.03-76.58,3.83-13.88,7.68-27.75,11.62-41.59,.75-2.63-.56-4.56-1.69-6.51-13.61-23.51-21.92-48.93-26.82-75.48-3.53-19.15-4.3-38.61-2.96-57.95,1.95-28.22,8.68-55.41,20.29-81.41,8.92-20,20.2-38.47,34.04-55.31,12.88-15.68,27.47-29.76,43.86-41.83,21.28-15.67,44.47-27.77,69.69-35.8,16.91-5.38,34.18-9.06,51.94-10.68,7.49-.68,14.93-.44,22.39-.9Z"/><path class="cls-1" d="M58.01,431.27c6.18-22.55,11.93-44.36,18.23-66.01,1.68-5.79,1-10.12-2.23-15.21-22.88-36-33.11-75.49-31.13-118.01,4.15-89.04,68.82-165.81,156.4-185.96,106.74-24.56,213.91,40.61,240.99,146.55,28.03,109.65-40.62,221.56-151.57,246.32-52.89,11.81-102.77,3.1-149.29-24.56-3.58-2.13-6.64-2.57-10.69-1.47-22.29,6.04-44.68,11.75-67.03,17.57-.93,.24-1.89,.4-3.69,.78Z"/><path class="cls-2" d="M311.63,358.57c-15.51,.21-29.01-4.62-42.7-8.79-50.45-15.38-87.2-48.43-117.19-90.23-9.8-13.65-19.54-27.34-25.18-43.39-9.96-28.35-6.72-54.19,14.41-76.77,5.55-5.93,11.91-9.05,20.23-8.94,17.62,.24,18.41,.49,25.19,16.58,5.49,13,10.74,26.1,16.25,39.09,2,4.71,1.69,8.91-1.21,13.16-4.51,6.6-9.25,13.03-14.49,19.05-3.6,4.15-3.87,7.95-1.04,12.62,18.61,30.74,43.59,54.29,76.94,68.53,2.14,.91,4.23,1.94,6.38,2.83,5.5,2.28,8.48,1.67,12.34-2.97,5.96-7.15,11.85-14.37,17.6-21.69,4.9-6.24,6.83-7.25,13.98-4.34,17.27,7.01,33.76,15.69,50.41,24.03,3.26,1.63,4.01,4.41,4.14,7.85,1.25,32.53-23.84,49.16-49.01,52.99-2.62,.4-5.32,.31-7.07,.41Z"/></g></g></svg>