<?xml version="1.0" standalone="no"?>
<!DOCTYPE svg PUBLIC "-//W3C//DTD SVG 20010904//EN"
 "http://www.w3.org/TR/2001/REC-SVG-20010904/DTD/svg10.dtd">
<svg version="1.0" xmlns="http://www.w3.org/2000/svg"
 width="512.000000pt" height="512.000000pt" viewBox="0 0 512.000000 512.000000"
 preserveAspectRatio="xMidYMid meet">
<metadata>
Created by potrace 1.14, written by Peter Selinger 2001-2017
</metadata>
<g transform="translate(0.000000,512.000000) scale(0.100000,-0.100000)"
fill="#000000" stroke="none">
<path d="M1391 4935 c-18 -16 -35 -48 -51 -100 -13 -41 -29 -79 -34 -84 -11
-8 -86 -34 -616 -213 -162 -55 -317 -112 -345 -126 -73 -39 -158 -129 -193
-204 -55 -116 -58 -169 -27 -488 2 -25 7 -79 10 -120 3 -41 8 -95 10 -120 2
-25 7 -79 10 -120 4 -41 8 -91 10 -110 2 -19 6 -69 10 -110 7 -87 13 -158 20
-232 3 -29 7 -84 11 -123 3 -38 7 -90 9 -115 2 -25 7 -83 10 -129 4 -47 8 -92
10 -101 2 -8 6 -63 10 -120 4 -57 8 -111 10 -120 1 -8 6 -62 10 -120 4 -58 9
-112 10 -121 2 -8 6 -55 9 -105 4 -49 9 -105 11 -124 3 -19 7 -66 10 -105 3
-38 8 -92 10 -120 2 -27 7 -84 10 -125 4 -41 8 -91 10 -110 2 -19 6 -71 10
-115 3 -44 8 -102 11 -130 2 -27 6 -77 9 -110 8 -94 16 -186 20 -230 2 -22 7
-69 10 -105 8 -88 21 -134 57 -202 51 -96 151 -181 263 -224 48 -18 106 -19
1820 -21 1454 -2 1780 0 1827 11 194 45 343 216 363 414 2 20 6 73 10 117 4
44 8 96 10 115 2 19 6 71 10 115 3 44 8 98 10 120 2 22 6 76 10 120 3 44 8 98
10 120 5 43 14 152 20 225 9 117 25 306 30 355 2 22 7 76 10 120 3 44 8 96 10
115 3 19 7 71 10 115 3 44 8 96 10 115 2 19 7 73 11 120 4 47 8 99 9 115 2 17
6 73 10 125 4 52 9 104 11 114 2 10 6 62 9 115 3 53 8 103 10 111 2 8 7 56 10
105 4 50 8 106 10 125 2 19 6 69 9 110 3 41 8 102 11 135 11 113 14 150 20
220 3 39 8 89 11 113 14 108 11 256 -7 315 -36 119 -126 230 -229 282 -44 22
-177 69 -685 240 -143 48 -265 93 -271 99 -7 6 -24 48 -38 93 -37 111 -41 113
-259 110 -166 -2 -167 -2 -193 -29 -18 -17 -27 -37 -26 -56 1 -32 -2 -34 -98
-74 -95 -40 -151 -73 -285 -167 -71 -51 -164 -109 -204 -129 -67 -33 -83 -37
-151 -37 -68 0 -84 4 -151 37 -40 21 -128 76 -194 123 -109 78 -340 205 -372
205 -7 0 -14 5 -14 10 -1 6 -2 18 -4 28 -4 39 -25 70 -53 80 -16 5 -102 10
-191 10 -155 -1 -164 -2 -190 -23z"/>
</g>
</svg>
